# xmcd
#
# Track frame offsets:
#	150
#	13464
#	29911
#	45684
#	64564
#	81019
#	100589
#	117141
#	134592
#	148136
#	163701
#	184926
#	202186
#	220892
#	240466
#	257129
#	275729
# Disc length: 3943 seconds
# Revision: 1
# Processed by: cddbd v1.5.2PL0 Copyright (c) Steve Scherf et al.
#
# Submitted via: libkcddb 0.21
#
DISCID=090f6511
DTITLE=Kenny Rogers - All Hits
DYEAR=1999
DGENRE=Country
TTITLE0=Roby, Don't Take Your Love To Town
TTITLE1=Lucille
TTITLE2=The Gambler
TTITLE3=She Believes In Me
TTITLE4=You Decorated My Life
TTITLE5=Coward Of The County
TTITLE6=Don't Fall In Love With A Dreamer
TTITLE7=Lady
TTITLE8=What Are We Doin' In Love
TTITLE9=I Don't Need You
TTITLE10=Through The Years
TTITLE11=We've Got Tonight
TTITLE12=Islands In The Stream
TTITLE13=What About Me?
TTITLE14=Crazy
TTITLE15=Morning Desire
TTITLE16=They Don't Make Them Like They Used To
EXTD=
EXTT0=
EXTT1=
EXTT2=
EXTT3=
EXTT4=
EXTT5=
EXTT6=
EXTT7=
EXTT8=
EXTT9=
EXTT10=
EXTT11=
EXTT12=
EXTT13=
EXTT14=
EXTT15=
EXTT16=
PLAYORDER=
